<mxfile host="www.draw.io" modified="2019-11-09T14:11:28.836Z" agent="Mozilla/5.0 (Macintosh; Intel Mac OS X 10_15_0) AppleWebKit/537.36 (KHTML, like Gecko) Chrome/78.0.3904.87 Safari/537.36" etag="U9S8m8ZywM3F3QS0spab" version="12.2.3" type="github" pages="2">
  <diagram id="jKluhGD8QkqTiX8im4Pk" name="stakeholders">
    <mxGraphModel dx="2052" dy="1100" grid="1" gridSize="10" guides="1" tooltips="1" connect="1" arrows="1" fold="1" page="1" pageScale="1" pageWidth="827" pageHeight="1169" math="0" shadow="0">
      <root>
        <mxCell id="0"/>
        <mxCell id="1" parent="0"/>
        <mxCell id="Wf2RTjPadz7d3SIv0R-x-41" value="" style="rounded=0;whiteSpace=wrap;html=1;opacity=40;fillColor=#ffe6cc;strokeColor=#d79b00;" parent="1" vertex="1">
          <mxGeometry x="120" y="160" width="450" height="460" as="geometry"/>
        </mxCell>
        <mxCell id="Wf2RTjPadz7d3SIv0R-x-40" value="" style="rounded=0;whiteSpace=wrap;html=1;opacity=50;fillColor=#dae8fc;strokeColor=#6c8ebf;" parent="1" vertex="1">
          <mxGeometry x="140" y="300" width="410" height="300" as="geometry"/>
        </mxCell>
        <mxCell id="Wf2RTjPadz7d3SIv0R-x-3" value="1" style="edgeStyle=orthogonalEdgeStyle;rounded=0;orthogonalLoop=1;jettySize=auto;html=1;entryX=1;entryY=0.5;entryDx=0;entryDy=0;arcSize=10;" parent="1" source="Wf2RTjPadz7d3SIv0R-x-1" target="Wf2RTjPadz7d3SIv0R-x-2" edge="1">
          <mxGeometry relative="1" as="geometry"/>
        </mxCell>
        <mxCell id="Wf2RTjPadz7d3SIv0R-x-1" value="Root Account" style="rounded=1;whiteSpace=wrap;html=1;arcSize=10;" parent="1" vertex="1">
          <mxGeometry x="404" y="115" width="90" height="30" as="geometry"/>
        </mxCell>
        <mxCell id="Wf2RTjPadz7d3SIv0R-x-2" value="has" style="rhombus;whiteSpace=wrap;html=1;arcSize=10;" parent="1" vertex="1">
          <mxGeometry x="305" y="110" width="50" height="40" as="geometry"/>
        </mxCell>
        <mxCell id="Wf2RTjPadz7d3SIv0R-x-8" value="1" style="edgeStyle=orthogonalEdgeStyle;rounded=0;orthogonalLoop=1;jettySize=auto;html=1;exitX=0.5;exitY=1;exitDx=0;exitDy=0;entryX=0.5;entryY=0;entryDx=0;entryDy=0;arcSize=10;" parent="1" source="Wf2RTjPadz7d3SIv0R-x-4" target="Wf2RTjPadz7d3SIv0R-x-6" edge="1">
          <mxGeometry relative="1" as="geometry"/>
        </mxCell>
        <mxCell id="Wf2RTjPadz7d3SIv0R-x-4" value="Agency" style="rounded=1;whiteSpace=wrap;html=1;arcSize=10;" parent="1" vertex="1">
          <mxGeometry x="300" y="180" width="60" height="30" as="geometry"/>
        </mxCell>
        <mxCell id="Wf2RTjPadz7d3SIv0R-x-13" value="N" style="edgeStyle=orthogonalEdgeStyle;rounded=0;orthogonalLoop=1;jettySize=auto;html=1;entryX=0.5;entryY=0;entryDx=0;entryDy=0;exitX=0;exitY=0.5;exitDx=0;exitDy=0;" parent="1" source="Wf2RTjPadz7d3SIv0R-x-6" target="Wf2RTjPadz7d3SIv0R-x-12" edge="1">
          <mxGeometry relative="1" as="geometry"/>
        </mxCell>
        <mxCell id="Wf2RTjPadz7d3SIv0R-x-11" value="N" style="edgeStyle=orthogonalEdgeStyle;rounded=0;orthogonalLoop=1;jettySize=auto;html=1;entryX=0;entryY=0.5;entryDx=0;entryDy=0;arcSize=10;exitX=1;exitY=0.5;exitDx=0;exitDy=0;" parent="1" source="Wf2RTjPadz7d3SIv0R-x-6" target="Wf2RTjPadz7d3SIv0R-x-10" edge="1">
          <mxGeometry relative="1" as="geometry">
            <mxPoint x="420" y="320" as="sourcePoint"/>
          </mxGeometry>
        </mxCell>
        <mxCell id="Wf2RTjPadz7d3SIv0R-x-16" value="1" style="edgeStyle=orthogonalEdgeStyle;rounded=0;orthogonalLoop=1;jettySize=auto;html=1;exitX=0.5;exitY=1;exitDx=0;exitDy=0;entryX=0.5;entryY=0;entryDx=0;entryDy=0;" parent="1" source="Wf2RTjPadz7d3SIv0R-x-10" target="Wf2RTjPadz7d3SIv0R-x-15" edge="1">
          <mxGeometry relative="1" as="geometry"/>
        </mxCell>
        <mxCell id="Wf2RTjPadz7d3SIv0R-x-10" value="Super Admin" style="rounded=1;whiteSpace=wrap;html=1;arcSize=10;" parent="1" vertex="1">
          <mxGeometry x="400" y="250" width="83" height="30" as="geometry"/>
        </mxCell>
        <mxCell id="Wf2RTjPadz7d3SIv0R-x-19" value="1" style="edgeStyle=orthogonalEdgeStyle;rounded=0;orthogonalLoop=1;jettySize=auto;html=1;exitX=0.5;exitY=1;exitDx=0;exitDy=0;entryX=0.5;entryY=0;entryDx=0;entryDy=0;" parent="1" source="Wf2RTjPadz7d3SIv0R-x-12" target="Wf2RTjPadz7d3SIv0R-x-18" edge="1">
          <mxGeometry relative="1" as="geometry"/>
        </mxCell>
        <mxCell id="Wf2RTjPadz7d3SIv0R-x-12" value="Client or Brand" style="rounded=1;whiteSpace=wrap;html=1;arcSize=10;" parent="1" vertex="1">
          <mxGeometry x="240" y="335" width="90" height="30" as="geometry"/>
        </mxCell>
        <mxCell id="Wf2RTjPadz7d3SIv0R-x-17" value="N" style="edgeStyle=orthogonalEdgeStyle;rounded=0;orthogonalLoop=1;jettySize=auto;html=1;exitX=0;exitY=0.5;exitDx=0;exitDy=0;entryX=1;entryY=0.5;entryDx=0;entryDy=0;" parent="1" source="Wf2RTjPadz7d3SIv0R-x-15" target="Wf2RTjPadz7d3SIv0R-x-12" edge="1">
          <mxGeometry relative="1" as="geometry"/>
        </mxCell>
        <mxCell id="Wf2RTjPadz7d3SIv0R-x-15" value="manages" style="rhombus;whiteSpace=wrap;html=1;arcSize=10;" parent="1" vertex="1">
          <mxGeometry x="404" y="330" width="75" height="40" as="geometry"/>
        </mxCell>
        <mxCell id="Wf2RTjPadz7d3SIv0R-x-28" value="N" style="edgeStyle=orthogonalEdgeStyle;rounded=0;orthogonalLoop=1;jettySize=auto;html=1;exitX=0;exitY=0.5;exitDx=0;exitDy=0;entryX=0.5;entryY=0;entryDx=0;entryDy=0;" parent="1" source="Wf2RTjPadz7d3SIv0R-x-18" target="Wf2RTjPadz7d3SIv0R-x-20" edge="1">
          <mxGeometry relative="1" as="geometry"/>
        </mxCell>
        <mxCell id="Wf2RTjPadz7d3SIv0R-x-30" style="edgeStyle=orthogonalEdgeStyle;rounded=0;orthogonalLoop=1;jettySize=auto;html=1;exitX=1;exitY=0.5;exitDx=0;exitDy=0;entryX=0.5;entryY=0;entryDx=0;entryDy=0;" parent="1" source="Wf2RTjPadz7d3SIv0R-x-18" target="Wf2RTjPadz7d3SIv0R-x-21" edge="1">
          <mxGeometry relative="1" as="geometry"/>
        </mxCell>
        <mxCell id="Wf2RTjPadz7d3SIv0R-x-45" value="N" style="text;html=1;resizable=0;points=[];align=center;verticalAlign=middle;labelBackgroundColor=#ffffff;" parent="Wf2RTjPadz7d3SIv0R-x-30" vertex="1" connectable="0">
          <mxGeometry x="0.0621" y="-1" relative="1" as="geometry">
            <mxPoint as="offset"/>
          </mxGeometry>
        </mxCell>
        <mxCell id="Wf2RTjPadz7d3SIv0R-x-18" value="has" style="rhombus;whiteSpace=wrap;html=1;arcSize=10;" parent="1" vertex="1">
          <mxGeometry x="260" y="400" width="50" height="40" as="geometry"/>
        </mxCell>
        <mxCell id="Wf2RTjPadz7d3SIv0R-x-38" value="1" style="edgeStyle=orthogonalEdgeStyle;rounded=0;orthogonalLoop=1;jettySize=auto;html=1;exitX=1;exitY=0.5;exitDx=0;exitDy=0;entryX=0;entryY=0.5;entryDx=0;entryDy=0;" parent="1" source="Wf2RTjPadz7d3SIv0R-x-20" target="Wf2RTjPadz7d3SIv0R-x-37" edge="1">
          <mxGeometry relative="1" as="geometry"/>
        </mxCell>
        <mxCell id="Wf2RTjPadz7d3SIv0R-x-20" value="User" style="rounded=1;whiteSpace=wrap;html=1;arcSize=10;" parent="1" vertex="1">
          <mxGeometry x="150" y="480" width="60" height="30" as="geometry"/>
        </mxCell>
        <mxCell id="Wf2RTjPadz7d3SIv0R-x-32" value="N" style="edgeStyle=orthogonalEdgeStyle;rounded=0;orthogonalLoop=1;jettySize=auto;html=1;exitX=1;exitY=0.5;exitDx=0;exitDy=0;entryX=0;entryY=0.5;entryDx=0;entryDy=0;" parent="1" source="Wf2RTjPadz7d3SIv0R-x-21" target="Wf2RTjPadz7d3SIv0R-x-31" edge="1">
          <mxGeometry relative="1" as="geometry"/>
        </mxCell>
        <mxCell id="Wf2RTjPadz7d3SIv0R-x-21" value="Campaign" style="rounded=1;whiteSpace=wrap;html=1;arcSize=10;" parent="1" vertex="1">
          <mxGeometry x="360" y="480" width="70" height="30" as="geometry"/>
        </mxCell>
        <mxCell id="Wf2RTjPadz7d3SIv0R-x-25" value="N" style="edgeStyle=orthogonalEdgeStyle;rounded=0;orthogonalLoop=1;jettySize=auto;html=1;exitX=0.5;exitY=1;exitDx=0;exitDy=0;arcSize=10;entryX=0.5;entryY=0;entryDx=0;entryDy=0;" parent="1" source="Wf2RTjPadz7d3SIv0R-x-2" target="Wf2RTjPadz7d3SIv0R-x-4" edge="1">
          <mxGeometry relative="1" as="geometry">
            <mxPoint x="330" y="170" as="sourcePoint"/>
            <mxPoint x="345" y="190" as="targetPoint"/>
          </mxGeometry>
        </mxCell>
        <mxCell id="Wf2RTjPadz7d3SIv0R-x-6" value="has" style="rhombus;whiteSpace=wrap;html=1;arcSize=10;" parent="1" vertex="1">
          <mxGeometry x="305" y="245" width="50" height="40" as="geometry"/>
        </mxCell>
        <mxCell id="Wf2RTjPadz7d3SIv0R-x-35" style="edgeStyle=orthogonalEdgeStyle;rounded=0;orthogonalLoop=1;jettySize=auto;html=1;exitX=0.5;exitY=1;exitDx=0;exitDy=0;entryX=0.5;entryY=0;entryDx=0;entryDy=0;" parent="1" source="Wf2RTjPadz7d3SIv0R-x-31" target="Wf2RTjPadz7d3SIv0R-x-33" edge="1">
          <mxGeometry relative="1" as="geometry"/>
        </mxCell>
        <mxCell id="Wf2RTjPadz7d3SIv0R-x-31" value="has" style="rhombus;whiteSpace=wrap;html=1;arcSize=10;" parent="1" vertex="1">
          <mxGeometry x="481.5" y="475" width="50" height="40" as="geometry"/>
        </mxCell>
        <mxCell id="Wf2RTjPadz7d3SIv0R-x-36" value="1" style="edgeStyle=orthogonalEdgeStyle;rounded=0;orthogonalLoop=1;jettySize=auto;html=1;exitX=0;exitY=0.5;exitDx=0;exitDy=0;entryX=1;entryY=0.5;entryDx=0;entryDy=0;" parent="1" source="Wf2RTjPadz7d3SIv0R-x-46" target="Wf2RTjPadz7d3SIv0R-x-34" edge="1">
          <mxGeometry relative="1" as="geometry"/>
        </mxCell>
        <mxCell id="Wf2RTjPadz7d3SIv0R-x-33" value="Activity" style="rounded=1;whiteSpace=wrap;html=1;arcSize=10;" parent="1" vertex="1">
          <mxGeometry x="476.5" y="554" width="60" height="30" as="geometry"/>
        </mxCell>
        <mxCell id="Wf2RTjPadz7d3SIv0R-x-34" value="Type" style="rounded=1;whiteSpace=wrap;html=1;arcSize=10;" parent="1" vertex="1">
          <mxGeometry x="287.5" y="554" width="35" height="30" as="geometry"/>
        </mxCell>
        <mxCell id="Wf2RTjPadz7d3SIv0R-x-39" value="N" style="edgeStyle=orthogonalEdgeStyle;rounded=0;orthogonalLoop=1;jettySize=auto;html=1;exitX=1;exitY=0.5;exitDx=0;exitDy=0;entryX=0;entryY=0.5;entryDx=0;entryDy=0;" parent="1" source="Wf2RTjPadz7d3SIv0R-x-37" target="Wf2RTjPadz7d3SIv0R-x-21" edge="1">
          <mxGeometry relative="1" as="geometry"/>
        </mxCell>
        <mxCell id="Wf2RTjPadz7d3SIv0R-x-37" value="manages" style="rhombus;whiteSpace=wrap;html=1;arcSize=10;" parent="1" vertex="1">
          <mxGeometry x="247.5" y="475" width="75" height="40" as="geometry"/>
        </mxCell>
        <mxCell id="Wf2RTjPadz7d3SIv0R-x-42" value="Agency Ecosystem" style="text;html=1;strokeColor=none;fillColor=none;align=center;verticalAlign=middle;whiteSpace=wrap;rounded=0;opacity=20;" parent="1" vertex="1">
          <mxGeometry x="145" y="170" width="70" height="20" as="geometry"/>
        </mxCell>
        <mxCell id="Wf2RTjPadz7d3SIv0R-x-43" value="Client Ecosystem" style="text;html=1;strokeColor=none;fillColor=none;align=center;verticalAlign=middle;whiteSpace=wrap;rounded=0;opacity=20;" parent="1" vertex="1">
          <mxGeometry x="145" y="310" width="70" height="20" as="geometry"/>
        </mxCell>
        <mxCell id="Wf2RTjPadz7d3SIv0R-x-46" value="has" style="rhombus;whiteSpace=wrap;html=1;arcSize=10;" parent="1" vertex="1">
          <mxGeometry x="370" y="549" width="50" height="40" as="geometry"/>
        </mxCell>
        <mxCell id="Wf2RTjPadz7d3SIv0R-x-47" value="1" style="edgeStyle=orthogonalEdgeStyle;rounded=0;orthogonalLoop=1;jettySize=auto;html=1;exitX=0;exitY=0.5;exitDx=0;exitDy=0;entryX=1;entryY=0.5;entryDx=0;entryDy=0;" parent="1" source="Wf2RTjPadz7d3SIv0R-x-33" target="Wf2RTjPadz7d3SIv0R-x-46" edge="1">
          <mxGeometry relative="1" as="geometry">
            <mxPoint x="477" y="569" as="sourcePoint"/>
            <mxPoint x="285" y="569" as="targetPoint"/>
          </mxGeometry>
        </mxCell>
      </root>
    </mxGraphModel>
  </diagram>
  <diagram id="lBU4uNg5RBvVY3iyq9Br" name="zone_of_interests">
    <mxGraphModel dx="2052" dy="1100" grid="1" gridSize="10" guides="1" tooltips="1" connect="1" arrows="1" fold="1" page="1" pageScale="1" pageWidth="827" pageHeight="1169" math="0" shadow="0">
      <root>
        <mxCell id="3o_GUYhr_vy58ZV4Dz9e-0"/>
        <mxCell id="3o_GUYhr_vy58ZV4Dz9e-1" parent="3o_GUYhr_vy58ZV4Dz9e-0"/>
        <mxCell id="J0mkZTyC2U5HARigKmnJ-13" value="" style="rounded=0;whiteSpace=wrap;html=1;strokeColor=none;" vertex="1" parent="3o_GUYhr_vy58ZV4Dz9e-1">
          <mxGeometry x="142" y="550" width="356" height="60" as="geometry"/>
        </mxCell>
        <mxCell id="J0mkZTyC2U5HARigKmnJ-4" value="" style="ellipse;whiteSpace=wrap;html=1;aspect=fixed;fillColor=#537ec5;strokeColor=#1B2A49;" vertex="1" parent="3o_GUYhr_vy58ZV4Dz9e-1">
          <mxGeometry x="187.5" y="290" width="250" height="250" as="geometry"/>
        </mxCell>
        <mxCell id="J0mkZTyC2U5HARigKmnJ-2" value="" style="ellipse;whiteSpace=wrap;html=1;aspect=fixed;fillColor=#c9d1d3;strokeColor=#000000;fontColor=#333333;" vertex="1" parent="3o_GUYhr_vy58ZV4Dz9e-1">
          <mxGeometry x="217.5" y="322.5" width="185" height="185" as="geometry"/>
        </mxCell>
        <mxCell id="J0mkZTyC2U5HARigKmnJ-3" value="" style="ellipse;whiteSpace=wrap;html=1;aspect=fixed;fillColor=#00909e;strokeColor=#000000;rotation=-2;" vertex="1" parent="3o_GUYhr_vy58ZV4Dz9e-1">
          <mxGeometry x="250" y="355" width="120" height="120" as="geometry"/>
        </mxCell>
        <mxCell id="J0mkZTyC2U5HARigKmnJ-1" value="" style="ellipse;whiteSpace=wrap;html=1;aspect=fixed;fillColor=#465881;strokeColor=#000000;" vertex="1" parent="3o_GUYhr_vy58ZV4Dz9e-1">
          <mxGeometry x="260" y="365" width="100" height="100" as="geometry"/>
        </mxCell>
        <mxCell id="J0mkZTyC2U5HARigKmnJ-0" value="" style="ellipse;whiteSpace=wrap;html=1;aspect=fixed;fillColor=#1B2A49;strokeColor=#000000;" vertex="1" parent="3o_GUYhr_vy58ZV4Dz9e-1">
          <mxGeometry x="290" y="395" width="40" height="40" as="geometry"/>
        </mxCell>
        <mxCell id="J0mkZTyC2U5HARigKmnJ-15" value="" style="ellipse;whiteSpace=wrap;html=1;aspect=fixed;fillColor=#1B2A49;strokeColor=#000000;" vertex="1" parent="3o_GUYhr_vy58ZV4Dz9e-1">
          <mxGeometry x="160" y="560" width="15" height="15" as="geometry"/>
        </mxCell>
        <mxCell id="J0mkZTyC2U5HARigKmnJ-16" value="" style="ellipse;whiteSpace=wrap;html=1;aspect=fixed;fillColor=#465881;strokeColor=#000000;" vertex="1" parent="3o_GUYhr_vy58ZV4Dz9e-1">
          <mxGeometry x="235" y="560" width="15" height="15" as="geometry"/>
        </mxCell>
        <mxCell id="J0mkZTyC2U5HARigKmnJ-17" value="" style="ellipse;whiteSpace=wrap;html=1;aspect=fixed;fillColor=#00909e;strokeColor=#000000;rotation=-2;" vertex="1" parent="3o_GUYhr_vy58ZV4Dz9e-1">
          <mxGeometry x="312.5" y="560" width="15" height="15" as="geometry"/>
        </mxCell>
        <mxCell id="J0mkZTyC2U5HARigKmnJ-19" value="" style="ellipse;whiteSpace=wrap;html=1;aspect=fixed;fillColor=#c9d1d3;strokeColor=#000000;fontColor=#333333;" vertex="1" parent="3o_GUYhr_vy58ZV4Dz9e-1">
          <mxGeometry x="390" y="560" width="15" height="15" as="geometry"/>
        </mxCell>
        <mxCell id="J0mkZTyC2U5HARigKmnJ-20" value="" style="ellipse;whiteSpace=wrap;html=1;aspect=fixed;fillColor=#537ec5;strokeColor=#1B2A49;" vertex="1" parent="3o_GUYhr_vy58ZV4Dz9e-1">
          <mxGeometry x="460" y="560" width="15" height="15" as="geometry"/>
        </mxCell>
        <mxCell id="J0mkZTyC2U5HARigKmnJ-21" value="Interactions" style="text;html=1;strokeColor=none;fillColor=none;align=center;verticalAlign=middle;whiteSpace=wrap;rounded=0;" vertex="1" parent="3o_GUYhr_vy58ZV4Dz9e-1">
          <mxGeometry x="147.5" y="575" width="40" height="20" as="geometry"/>
        </mxCell>
        <mxCell id="J0mkZTyC2U5HARigKmnJ-23" value="Visitors" style="text;html=1;strokeColor=none;fillColor=none;align=center;verticalAlign=middle;whiteSpace=wrap;rounded=0;" vertex="1" parent="3o_GUYhr_vy58ZV4Dz9e-1">
          <mxGeometry x="222.5" y="575" width="40" height="20" as="geometry"/>
        </mxCell>
        <mxCell id="J0mkZTyC2U5HARigKmnJ-24" value="Bounces" style="text;html=1;strokeColor=none;fillColor=none;align=center;verticalAlign=middle;whiteSpace=wrap;rounded=0;" vertex="1" parent="3o_GUYhr_vy58ZV4Dz9e-1">
          <mxGeometry x="300" y="574.5" width="40" height="20" as="geometry"/>
        </mxCell>
        <mxCell id="J0mkZTyC2U5HARigKmnJ-25" value="Views" style="text;html=1;strokeColor=none;fillColor=none;align=center;verticalAlign=middle;whiteSpace=wrap;rounded=0;" vertex="1" parent="3o_GUYhr_vy58ZV4Dz9e-1">
          <mxGeometry x="380" y="574.5" width="40" height="20" as="geometry"/>
        </mxCell>
        <mxCell id="J0mkZTyC2U5HARigKmnJ-26" value="Opportunities" style="text;html=1;strokeColor=none;fillColor=none;align=center;verticalAlign=middle;whiteSpace=wrap;rounded=0;" vertex="1" parent="3o_GUYhr_vy58ZV4Dz9e-1">
          <mxGeometry x="450" y="574.5" width="40" height="20" as="geometry"/>
        </mxCell>
      </root>
    </mxGraphModel>
  </diagram>
</mxfile>
